<svg xmlns="http://www.w3.org/2000/svg" xmlns:xlink="http://www.w3.org/1999/xlink" width="500" zoomAndPan="magnify" viewBox="0 0 375 374.999991" height="500" preserveAspectRatio="xMidYMid meet" version="1.0"><defs><clipPath id="7a25c77b55"><path d="M 81.441406 65.136719 L 296.691406 65.136719 L 296.691406 283.386719 L 81.441406 283.386719 Z M 81.441406 65.136719 " clip-rule="nonzero"/></clipPath><clipPath id="7da8edf61d"><path d="M 117.484375 138.230469 L 260.734375 138.230469 L 260.734375 283.730469 L 117.484375 283.730469 Z M 117.484375 138.230469 " clip-rule="nonzero"/></clipPath><clipPath id="6d1f341884"><path d="M 148.171875 200.460938 L 229.921875 200.460938 L 229.921875 283.710938 L 148.171875 283.710938 Z M 148.171875 200.460938 " clip-rule="nonzero"/></clipPath><clipPath id="b05a79d9c6"><path d="M 29 112 L 352 112 L 352 367 L 29 367 Z M 29 112 " clip-rule="nonzero"/></clipPath><clipPath id="6abc0ae38f"><path d="M -36.917969 219.207031 L 174.335938 -18.480469 L 415.386719 195.765625 L 204.132812 433.453125 Z M -36.917969 219.207031 " clip-rule="nonzero"/></clipPath><clipPath id="f470827244"><path d="M -36.917969 219.207031 L 174.335938 -18.480469 L 415.386719 195.765625 L 204.132812 433.453125 Z M -36.917969 219.207031 " clip-rule="nonzero"/></clipPath><clipPath id="9e2af0da0a"><path d="M 159.046875 7.816406 L 219.046875 7.816406 L 219.046875 64.816406 L 159.046875 64.816406 Z M 159.046875 7.816406 " clip-rule="nonzero"/></clipPath></defs><g clip-path="url(#7a25c77b55)"><path fill="#6750a4" d="M 296.820312 213.960938 L 296.820312 387.328125 L 81.488281 387.328125 L 81.488281 213.960938 C 81.488281 209.816406 83.597656 205.949219 87.078125 203.707031 L 96.484375 197.644531 C 100.785156 194.871094 102.941406 189.695312 101.769531 184.714844 C 88.742188 129.558594 164.816406 101.824219 189.15625 65.144531 C 213.496094 101.824219 289.570312 129.554688 276.542969 184.710938 C 275.367188 189.6875 277.527344 194.867188 281.832031 197.640625 L 291.234375 203.703125 C 294.71875 205.949219 296.820312 209.816406 296.820312 213.960938 Z M 296.820312 213.960938 " fill-opacity="1" fill-rule="nonzero"/></g><g clip-path="url(#7da8edf61d)"><path fill="#ffffff" d="M 260.808594 237.265625 L 260.808594 352.628906 L 117.515625 352.628906 L 117.515625 237.265625 C 117.515625 234.503906 118.917969 231.933594 121.234375 230.441406 L 127.492188 226.40625 C 130.355469 224.558594 131.792969 221.117188 131.011719 217.800781 C 122.339844 181.097656 172.964844 162.640625 189.160156 138.234375 C 205.359375 162.640625 255.980469 181.097656 247.316406 217.800781 C 246.53125 221.113281 247.96875 224.558594 250.832031 226.402344 L 257.089844 230.4375 C 259.410156 231.933594 260.808594 234.503906 260.808594 237.265625 Z M 260.808594 237.265625 " fill-opacity="1" fill-rule="nonzero"/></g><g clip-path="url(#6d1f341884)"><path fill="#eae4fc" d="M 230.148438 257.109375 L 230.148438 323.09375 L 148.1875 323.09375 L 148.1875 257.109375 C 148.1875 255.53125 148.988281 254.058594 150.316406 253.203125 L 153.894531 250.898438 C 155.53125 249.839844 156.351562 247.871094 155.90625 245.976562 C 150.949219 224.980469 179.902344 214.425781 189.167969 200.464844 C 198.433594 214.425781 227.386719 224.980469 222.429688 245.972656 C 221.984375 247.867188 222.804688 249.839844 224.441406 250.894531 L 228.023438 253.203125 C 229.347656 254.058594 230.148438 255.53125 230.148438 257.109375 Z M 230.148438 257.109375 " fill-opacity="1" fill-rule="nonzero"/></g><g clip-path="url(#b05a79d9c6)"><g clip-path="url(#6abc0ae38f)"><g clip-path="url(#f470827244)"><path fill="#6750a4" d="M 58.152344 112.992188 C 46.375 160.460938 60.675781 212.71875 99.734375 247.433594 C 155.785156 297.25 241.738281 292.191406 291.558594 236.140625 C 322.613281 201.195312 332.34375 154.632812 321.6875 112.449219 C 364.007812 172.230469 361.261719 255.453125 310.535156 312.527344 C 251.457031 378.996094 149.527344 384.996094 83.058594 325.921875 C 21.269531 271.003906 11.734375 179.058594 58.152344 112.992188 Z M 58.152344 112.992188 " fill-opacity="1" fill-rule="evenodd"/></g></g></g><g clip-path="url(#9e2af0da0a)"><path fill="#eae4fc" d="M 189.175781 7.820312 L 193.832031 33.089844 L 219.304688 29.707031 L 196.707031 41.945312 L 207.796875 65.128906 L 189.175781 47.417969 L 170.554688 65.128906 L 181.644531 41.945312 L 159.046875 29.707031 L 184.519531 33.089844 Z M 189.175781 7.820312 " fill-opacity="1" fill-rule="evenodd"/></g></svg>